<svg version="1.0" xmlns="http://www.w3.org/2000/svg" width="1706.667" height="1706.667" fill="#b4b5b5" viewBox="0 0 1280 1280"><path d="M314.5 1.5c-4.9 1.7-9 6.2-10.4 11.2-.8 2.6-1.1 69.7-1.1 214.5V438H175.5c-104.9 0-128.1.2-130.8 1.4-7.8 3.2-12.4 13.2-9.7 20.8 1.3 3.6 579.3 678.6 584.1 682.1 4 2.9 11.1 3.4 16.1 1.1 3.4-1.5 29.1-31.5 163.3-190.9 87.6-103.9 215.3-255.6 283.9-337 68.7-81.4 126-149.7 127.4-151.8 4.7-7.1 2.8-16.8-4.5-22.4l-3.6-2.8-129.4-.3L943 438V11.3l-2.3-3.4c-1.2-1.9-4.2-4.4-6.7-5.7L929.6 0H624C363.3.1 317.9.3 314.5 1.5z"/></svg>
